<svg xmlns="http://www.w3.org/2000/svg" xmlns:xlink="http://www.w3.org/1999/xlink" width="500" zoomAndPan="magnify" viewBox="0 0 375 374.999991" height="500" preserveAspectRatio="xMidYMid meet" version="1.0"><defs><g/><clipPath id="401a81464c"><path d="M 257.996094 187.5 L 273.273438 187.5 L 273.273438 202.777344 L 257.996094 202.777344 Z M 257.996094 187.5 " clip-rule="nonzero"/></clipPath><clipPath id="624adcac56"><path d="M 265.636719 187.5 C 261.417969 187.5 257.996094 190.921875 257.996094 195.140625 C 257.996094 199.359375 261.417969 202.777344 265.636719 202.777344 C 269.855469 202.777344 273.273438 199.359375 273.273438 195.140625 C 273.273438 190.921875 269.855469 187.5 265.636719 187.5 Z M 265.636719 187.5 " clip-rule="nonzero"/></clipPath></defs><g fill="#000000" fill-opacity="1"><g transform="translate(78.759238, 204.321537)"><g><path d="M 104.984375 -86.96875 L 104.984375 0 L 83.171875 0 L 83.171875 -84.4375 L 45.765625 0 L 44.75 0 L 7.359375 -84.4375 L 7.359375 0 L 6.21875 0 L 6.21875 -86.96875 L 27.890625 -86.96875 L 55.53125 -24.59375 L 83.171875 -86.96875 Z M 104.984375 -86.96875 "/></g></g></g><g fill="#000000" fill-opacity="1"><g transform="translate(173.840767, 204.321537)"><g><path d="M 80.375 -10.515625 C 72.601562 -2.742188 62.503906 1.140625 50.078125 1.140625 C 35.035156 1.140625 23.203125 -3.507812 14.578125 -12.8125 C 6.890625 -21.09375 3.085938 -31.316406 3.171875 -43.484375 C 3.253906 -55.484375 6.972656 -65.671875 14.328125 -74.046875 C 22.441406 -83.335938 33.175781 -87.984375 46.53125 -87.984375 C 55.144531 -87.984375 62.75 -86.757812 69.34375 -84.3125 C 71.457031 -83.46875 73.359375 -82.578125 75.046875 -81.640625 C 75.554688 -81.304688 76.023438 -81.015625 76.453125 -80.765625 L 76.828125 -80.375 L 77.078125 -80.25 L 76.328125 -79.484375 C 74.546875 -80.921875 71.925781 -82.191406 68.46875 -83.296875 C 64.570312 -84.472656 60.597656 -85.109375 56.546875 -85.203125 C 46.484375 -85.453125 38.582031 -81.222656 32.84375 -72.515625 C 27.769531 -64.828125 25.273438 -55.234375 25.359375 -43.734375 C 25.441406 -32.492188 27.976562 -22.859375 32.96875 -14.828125 C 38.457031 -6.128906 45.640625 -1.78125 54.515625 -1.78125 C 59.421875 -1.78125 64.453125 -2.878906 69.609375 -5.078125 C 74.003906 -6.929688 77.34375 -9 79.625 -11.28125 Z M 80.375 -10.515625 "/></g></g></g><g clip-path="url(#401a81464c)"><g clip-path="url(#624adcac56)"><path fill="#8c52ff" d="M 257.996094 187.5 L 273.273438 187.5 L 273.273438 202.777344 L 257.996094 202.777344 Z M 257.996094 187.5 " fill-opacity="1" fill-rule="nonzero"/></g></g><g fill="#000000" fill-opacity="1"><g transform="translate(87.372967, 225.232442)"><g><path d="M 11 -9.15625 L 11 0 L 10.0625 0 L 10.0625 -7.328125 L 6.46875 -1.15625 L 6.015625 -1.15625 L 2.421875 -7.28125 L 2.421875 0 L 1.484375 0 L 1.484375 -9.15625 L 2.28125 -9.15625 L 6.265625 -2.359375 L 10.203125 -9.15625 Z M 11 -9.15625 "/></g></g></g><g fill="#000000" fill-opacity="1"><g transform="translate(103.094267, 225.232442)"><g><path d="M 7.234375 -2.453125 L 2.125 -2.453125 L 1.03125 0 L 0.03125 0 L 4.21875 -9.15625 L 5.171875 -9.15625 L 9.34375 0 L 8.328125 0 Z M 6.875 -3.234375 L 4.6875 -8.140625 L 2.484375 -3.234375 Z M 6.875 -3.234375 "/></g></g></g><g fill="#000000" fill-opacity="1"><g transform="translate(115.702981, 225.232442)"><g><path d="M 3.265625 -8.3125 L 0.046875 -8.3125 L 0.046875 -9.15625 L 7.453125 -9.15625 L 7.453125 -8.3125 L 4.234375 -8.3125 L 4.234375 0 L 3.265625 0 Z M 3.265625 -8.3125 "/></g></g></g><g fill="#000000" fill-opacity="1"><g transform="translate(126.441523, 225.232442)"><g><path d="M 7.96875 -0.84375 L 7.96875 0 L 1.484375 0 L 1.484375 -9.15625 L 7.765625 -9.15625 L 7.765625 -8.3125 L 2.453125 -8.3125 L 2.453125 -5.0625 L 7.1875 -5.0625 L 7.1875 -4.234375 L 2.453125 -4.234375 L 2.453125 -0.84375 Z M 7.96875 -0.84375 "/></g></g></g><g fill="#000000" fill-opacity="1"><g transform="translate(138.422494, 225.232442)"><g><path d="M 5.171875 0.078125 C 3.992188 0.078125 3.070312 -0.257812 2.40625 -0.9375 C 1.738281 -1.625 1.40625 -2.613281 1.40625 -3.90625 L 1.40625 -9.15625 L 2.375 -9.15625 L 2.375 -3.953125 C 2.375 -2.890625 2.613281 -2.09375 3.09375 -1.5625 C 3.570312 -1.039062 4.265625 -0.78125 5.171875 -0.78125 C 6.085938 -0.78125 6.785156 -1.039062 7.265625 -1.5625 C 7.742188 -2.09375 7.984375 -2.890625 7.984375 -3.953125 L 7.984375 -9.15625 L 8.9375 -9.15625 L 8.9375 -3.90625 C 8.9375 -2.613281 8.601562 -1.625 7.9375 -0.9375 C 7.28125 -0.257812 6.359375 0.078125 5.171875 0.078125 Z M 5.171875 0.078125 "/></g></g></g><g fill="#000000" fill-opacity="1"><g transform="translate(152.012066, 225.232442)"><g><path d="M 4.015625 0.078125 C 3.335938 0.078125 2.6875 -0.03125 2.0625 -0.25 C 1.4375 -0.46875 0.953125 -0.753906 0.609375 -1.109375 L 1 -1.859375 C 1.320312 -1.523438 1.757812 -1.253906 2.3125 -1.046875 C 2.863281 -0.847656 3.429688 -0.75 4.015625 -0.75 C 4.835938 -0.75 5.453125 -0.894531 5.859375 -1.1875 C 6.265625 -1.488281 6.46875 -1.878906 6.46875 -2.359375 C 6.46875 -2.734375 6.359375 -3.03125 6.140625 -3.25 C 5.921875 -3.46875 5.648438 -3.632812 5.328125 -3.75 C 5.003906 -3.863281 4.550781 -3.988281 3.96875 -4.125 C 3.28125 -4.300781 2.734375 -4.46875 2.328125 -4.625 C 1.921875 -4.789062 1.570312 -5.039062 1.28125 -5.375 C 0.988281 -5.707031 0.84375 -6.15625 0.84375 -6.71875 C 0.84375 -7.1875 0.960938 -7.609375 1.203125 -7.984375 C 1.441406 -8.359375 1.816406 -8.660156 2.328125 -8.890625 C 2.835938 -9.117188 3.46875 -9.234375 4.21875 -9.234375 C 4.738281 -9.234375 5.25 -9.160156 5.75 -9.015625 C 6.25 -8.867188 6.679688 -8.671875 7.046875 -8.421875 L 6.71875 -7.65625 C 6.332031 -7.90625 5.921875 -8.09375 5.484375 -8.21875 C 5.054688 -8.34375 4.632812 -8.40625 4.21875 -8.40625 C 3.414062 -8.40625 2.8125 -8.25 2.40625 -7.9375 C 2 -7.632812 1.796875 -7.238281 1.796875 -6.75 C 1.796875 -6.382812 1.90625 -6.085938 2.125 -5.859375 C 2.34375 -5.640625 2.617188 -5.46875 2.953125 -5.34375 C 3.296875 -5.226562 3.75 -5.101562 4.3125 -4.96875 C 4.988281 -4.800781 5.53125 -4.632812 5.9375 -4.46875 C 6.351562 -4.3125 6.703125 -4.066406 6.984375 -3.734375 C 7.273438 -3.410156 7.421875 -2.972656 7.421875 -2.421875 C 7.421875 -1.953125 7.296875 -1.53125 7.046875 -1.15625 C 6.804688 -0.78125 6.425781 -0.476562 5.90625 -0.25 C 5.394531 -0.03125 4.765625 0.078125 4.015625 0.078125 Z M 4.015625 0.078125 "/></g></g></g><g fill="#000000" fill-opacity="1"><g transform="translate(163.286808, 225.232442)"><g/></g></g><g fill="#000000" fill-opacity="1"><g transform="translate(169.944991, 225.232442)"><g><path d="M 5.46875 0.078125 C 4.5625 0.078125 3.742188 -0.117188 3.015625 -0.515625 C 2.285156 -0.921875 1.710938 -1.476562 1.296875 -2.1875 C 0.890625 -2.894531 0.6875 -3.691406 0.6875 -4.578125 C 0.6875 -5.453125 0.890625 -6.242188 1.296875 -6.953125 C 1.710938 -7.671875 2.285156 -8.226562 3.015625 -8.625 C 3.753906 -9.03125 4.578125 -9.234375 5.484375 -9.234375 C 6.160156 -9.234375 6.785156 -9.117188 7.359375 -8.890625 C 7.929688 -8.660156 8.421875 -8.332031 8.828125 -7.90625 L 8.21875 -7.28125 C 7.5 -8.007812 6.59375 -8.375 5.5 -8.375 C 4.78125 -8.375 4.125 -8.207031 3.53125 -7.875 C 2.9375 -7.539062 2.472656 -7.085938 2.140625 -6.515625 C 1.804688 -5.941406 1.640625 -5.296875 1.640625 -4.578125 C 1.640625 -3.859375 1.804688 -3.210938 2.140625 -2.640625 C 2.472656 -2.066406 2.9375 -1.613281 3.53125 -1.28125 C 4.125 -0.945312 4.78125 -0.78125 5.5 -0.78125 C 6.601562 -0.78125 7.507812 -1.148438 8.21875 -1.890625 L 8.828125 -1.265625 C 8.421875 -0.828125 7.925781 -0.492188 7.34375 -0.265625 C 6.769531 -0.0351562 6.144531 0.078125 5.46875 0.078125 Z M 5.46875 0.078125 "/></g></g></g><g fill="#000000" fill-opacity="1"><g transform="translate(182.579863, 225.232442)"><g><path d="M 7.234375 -2.453125 L 2.125 -2.453125 L 1.03125 0 L 0.03125 0 L 4.21875 -9.15625 L 5.171875 -9.15625 L 9.34375 0 L 8.328125 0 Z M 6.875 -3.234375 L 4.6875 -8.140625 L 2.484375 -3.234375 Z M 6.875 -3.234375 "/></g></g></g><g fill="#000000" fill-opacity="1"><g transform="translate(195.188574, 225.232442)"><g><path d="M 4.015625 0.078125 C 3.335938 0.078125 2.6875 -0.03125 2.0625 -0.25 C 1.4375 -0.46875 0.953125 -0.753906 0.609375 -1.109375 L 1 -1.859375 C 1.320312 -1.523438 1.757812 -1.253906 2.3125 -1.046875 C 2.863281 -0.847656 3.429688 -0.75 4.015625 -0.75 C 4.835938 -0.75 5.453125 -0.894531 5.859375 -1.1875 C 6.265625 -1.488281 6.46875 -1.878906 6.46875 -2.359375 C 6.46875 -2.734375 6.359375 -3.03125 6.140625 -3.25 C 5.921875 -3.46875 5.648438 -3.632812 5.328125 -3.75 C 5.003906 -3.863281 4.550781 -3.988281 3.96875 -4.125 C 3.28125 -4.300781 2.734375 -4.46875 2.328125 -4.625 C 1.921875 -4.789062 1.570312 -5.039062 1.28125 -5.375 C 0.988281 -5.707031 0.84375 -6.15625 0.84375 -6.71875 C 0.84375 -7.1875 0.960938 -7.609375 1.203125 -7.984375 C 1.441406 -8.359375 1.816406 -8.660156 2.328125 -8.890625 C 2.835938 -9.117188 3.46875 -9.234375 4.21875 -9.234375 C 4.738281 -9.234375 5.25 -9.160156 5.75 -9.015625 C 6.25 -8.867188 6.679688 -8.671875 7.046875 -8.421875 L 6.71875 -7.65625 C 6.332031 -7.90625 5.921875 -8.09375 5.484375 -8.21875 C 5.054688 -8.34375 4.632812 -8.40625 4.21875 -8.40625 C 3.414062 -8.40625 2.8125 -8.25 2.40625 -7.9375 C 2 -7.632812 1.796875 -7.238281 1.796875 -6.75 C 1.796875 -6.382812 1.90625 -6.085938 2.125 -5.859375 C 2.34375 -5.640625 2.617188 -5.46875 2.953125 -5.34375 C 3.296875 -5.226562 3.75 -5.101562 4.3125 -4.96875 C 4.988281 -4.800781 5.53125 -4.632812 5.9375 -4.46875 C 6.351562 -4.3125 6.703125 -4.066406 6.984375 -3.734375 C 7.273438 -3.410156 7.421875 -2.972656 7.421875 -2.421875 C 7.421875 -1.953125 7.296875 -1.53125 7.046875 -1.15625 C 6.804688 -0.78125 6.425781 -0.476562 5.90625 -0.25 C 5.394531 -0.03125 4.765625 0.078125 4.015625 0.078125 Z M 4.015625 0.078125 "/></g></g></g><g fill="#000000" fill-opacity="1"><g transform="translate(206.463315, 225.232442)"><g><path d="M 4.015625 0.078125 C 3.335938 0.078125 2.6875 -0.03125 2.0625 -0.25 C 1.4375 -0.46875 0.953125 -0.753906 0.609375 -1.109375 L 1 -1.859375 C 1.320312 -1.523438 1.757812 -1.253906 2.3125 -1.046875 C 2.863281 -0.847656 3.429688 -0.75 4.015625 -0.75 C 4.835938 -0.75 5.453125 -0.894531 5.859375 -1.1875 C 6.265625 -1.488281 6.46875 -1.878906 6.46875 -2.359375 C 6.46875 -2.734375 6.359375 -3.03125 6.140625 -3.25 C 5.921875 -3.46875 5.648438 -3.632812 5.328125 -3.75 C 5.003906 -3.863281 4.550781 -3.988281 3.96875 -4.125 C 3.28125 -4.300781 2.734375 -4.46875 2.328125 -4.625 C 1.921875 -4.789062 1.570312 -5.039062 1.28125 -5.375 C 0.988281 -5.707031 0.84375 -6.15625 0.84375 -6.71875 C 0.84375 -7.1875 0.960938 -7.609375 1.203125 -7.984375 C 1.441406 -8.359375 1.816406 -8.660156 2.328125 -8.890625 C 2.835938 -9.117188 3.46875 -9.234375 4.21875 -9.234375 C 4.738281 -9.234375 5.25 -9.160156 5.75 -9.015625 C 6.25 -8.867188 6.679688 -8.671875 7.046875 -8.421875 L 6.71875 -7.65625 C 6.332031 -7.90625 5.921875 -8.09375 5.484375 -8.21875 C 5.054688 -8.34375 4.632812 -8.40625 4.21875 -8.40625 C 3.414062 -8.40625 2.8125 -8.25 2.40625 -7.9375 C 2 -7.632812 1.796875 -7.238281 1.796875 -6.75 C 1.796875 -6.382812 1.90625 -6.085938 2.125 -5.859375 C 2.34375 -5.640625 2.617188 -5.46875 2.953125 -5.34375 C 3.296875 -5.226562 3.75 -5.101562 4.3125 -4.96875 C 4.988281 -4.800781 5.53125 -4.632812 5.9375 -4.46875 C 6.351562 -4.3125 6.703125 -4.066406 6.984375 -3.734375 C 7.273438 -3.410156 7.421875 -2.972656 7.421875 -2.421875 C 7.421875 -1.953125 7.296875 -1.53125 7.046875 -1.15625 C 6.804688 -0.78125 6.425781 -0.476562 5.90625 -0.25 C 5.394531 -0.03125 4.765625 0.078125 4.015625 0.078125 Z M 4.015625 0.078125 "/></g></g></g><g fill="#000000" fill-opacity="1"><g transform="translate(217.738056, 225.232442)"><g><path d="M 5.171875 0.078125 C 3.992188 0.078125 3.070312 -0.257812 2.40625 -0.9375 C 1.738281 -1.625 1.40625 -2.613281 1.40625 -3.90625 L 1.40625 -9.15625 L 2.375 -9.15625 L 2.375 -3.953125 C 2.375 -2.890625 2.613281 -2.09375 3.09375 -1.5625 C 3.570312 -1.039062 4.265625 -0.78125 5.171875 -0.78125 C 6.085938 -0.78125 6.785156 -1.039062 7.265625 -1.5625 C 7.742188 -2.09375 7.984375 -2.890625 7.984375 -3.953125 L 7.984375 -9.15625 L 8.9375 -9.15625 L 8.9375 -3.90625 C 8.9375 -2.613281 8.601562 -1.625 7.9375 -0.9375 C 7.28125 -0.257812 6.359375 0.078125 5.171875 0.078125 Z M 5.171875 0.078125 "/></g></g></g><g fill="#000000" fill-opacity="1"><g transform="translate(231.327629, 225.232442)"><g><path d="M 10.71875 0.765625 C 10.4375 1.109375 10.101562 1.367188 9.71875 1.546875 C 9.34375 1.722656 8.929688 1.8125 8.484375 1.8125 C 7.941406 1.8125 7.425781 1.675781 6.9375 1.40625 C 6.457031 1.144531 5.921875 0.703125 5.328125 0.078125 C 4.441406 0.0546875 3.644531 -0.15625 2.9375 -0.5625 C 2.238281 -0.976562 1.6875 -1.535156 1.28125 -2.234375 C 0.882812 -2.929688 0.6875 -3.710938 0.6875 -4.578125 C 0.6875 -5.453125 0.890625 -6.242188 1.296875 -6.953125 C 1.710938 -7.660156 2.285156 -8.21875 3.015625 -8.625 C 3.753906 -9.03125 4.582031 -9.234375 5.5 -9.234375 C 6.40625 -9.234375 7.21875 -9.03125 7.9375 -8.625 C 8.664062 -8.226562 9.238281 -7.671875 9.65625 -6.953125 C 10.082031 -6.242188 10.296875 -5.453125 10.296875 -4.578125 C 10.296875 -3.804688 10.132812 -3.097656 9.8125 -2.453125 C 9.5 -1.816406 9.054688 -1.285156 8.484375 -0.859375 C 7.910156 -0.429688 7.253906 -0.148438 6.515625 -0.015625 C 7.179688 0.691406 7.84375 1.046875 8.5 1.046875 C 9.175781 1.046875 9.753906 0.765625 10.234375 0.203125 Z M 1.640625 -4.578125 C 1.640625 -3.859375 1.804688 -3.210938 2.140625 -2.640625 C 2.472656 -2.066406 2.929688 -1.613281 3.515625 -1.28125 C 4.109375 -0.945312 4.769531 -0.78125 5.5 -0.78125 C 6.21875 -0.78125 6.867188 -0.945312 7.453125 -1.28125 C 8.035156 -1.613281 8.492188 -2.066406 8.828125 -2.640625 C 9.160156 -3.210938 9.328125 -3.859375 9.328125 -4.578125 C 9.328125 -5.296875 9.160156 -5.941406 8.828125 -6.515625 C 8.492188 -7.085938 8.035156 -7.539062 7.453125 -7.875 C 6.867188 -8.207031 6.21875 -8.375 5.5 -8.375 C 4.769531 -8.375 4.109375 -8.207031 3.515625 -7.875 C 2.929688 -7.539062 2.472656 -7.085938 2.140625 -6.515625 C 1.804688 -5.941406 1.640625 -5.296875 1.640625 -4.578125 Z M 1.640625 -4.578125 "/></g></g></g><g fill="#000000" fill-opacity="1"><g transform="translate(245.531863, 225.232442)"><g><path d="M 5.171875 0.078125 C 3.992188 0.078125 3.070312 -0.257812 2.40625 -0.9375 C 1.738281 -1.625 1.40625 -2.613281 1.40625 -3.90625 L 1.40625 -9.15625 L 2.375 -9.15625 L 2.375 -3.953125 C 2.375 -2.890625 2.613281 -2.09375 3.09375 -1.5625 C 3.570312 -1.039062 4.265625 -0.78125 5.171875 -0.78125 C 6.085938 -0.78125 6.785156 -1.039062 7.265625 -1.5625 C 7.742188 -2.09375 7.984375 -2.890625 7.984375 -3.953125 L 7.984375 -9.15625 L 8.9375 -9.15625 L 8.9375 -3.90625 C 8.9375 -2.613281 8.601562 -1.625 7.9375 -0.9375 C 7.28125 -0.257812 6.359375 0.078125 5.171875 0.078125 Z M 5.171875 0.078125 "/></g></g></g><g fill="#000000" fill-opacity="1"><g transform="translate(259.121435, 225.232442)"><g><path d="M 7.96875 -0.84375 L 7.96875 0 L 1.484375 0 L 1.484375 -9.15625 L 7.765625 -9.15625 L 7.765625 -8.3125 L 2.453125 -8.3125 L 2.453125 -5.0625 L 7.1875 -5.0625 L 7.1875 -4.234375 L 2.453125 -4.234375 L 2.453125 -0.84375 Z M 7.96875 -0.84375 "/></g></g></g><g fill="#000000" fill-opacity="1"><g transform="translate(51.333269, 242.215561)"><g><path d="M 2 -5.171875 L 0.03125 -5.171875 L 0.03125 -5.3125 L 4.125 -5.3125 L 4.125 -5.171875 L 2.15625 -5.171875 L 2.15625 0 L 2 0 Z M 2 -5.171875 "/></g></g></g><g fill="#000000" fill-opacity="1"><g transform="translate(57.364614, 242.215561)"><g><path d="M 4.78125 0 L 3.4375 -1.875 C 3.257812 -1.84375 3.050781 -1.828125 2.8125 -1.828125 L 1.15625 -1.828125 L 1.15625 0 L 1.015625 0 L 1.015625 -5.3125 L 2.8125 -5.3125 C 3.46875 -5.3125 3.976562 -5.15625 4.34375 -4.84375 C 4.707031 -4.539062 4.890625 -4.113281 4.890625 -3.5625 C 4.890625 -3.144531 4.773438 -2.789062 4.546875 -2.5 C 4.328125 -2.21875 4.007812 -2.019531 3.59375 -1.90625 L 4.96875 0 Z M 2.828125 -1.96875 C 3.441406 -1.96875 3.914062 -2.101562 4.25 -2.375 C 4.582031 -2.65625 4.75 -3.050781 4.75 -3.5625 C 4.75 -4.082031 4.582031 -4.476562 4.25 -4.75 C 3.914062 -5.03125 3.441406 -5.171875 2.828125 -5.171875 L 1.15625 -5.171875 L 1.15625 -1.96875 Z M 2.828125 -1.96875 "/></g></g></g><g fill="#000000" fill-opacity="1"><g transform="translate(64.670505, 242.215561)"><g><path d="M 4.234375 -1.609375 L 0.984375 -1.609375 L 0.25 0 L 0.0625 0 L 2.53125 -5.3125 L 2.6875 -5.3125 L 5.15625 0 L 4.984375 0 Z M 4.171875 -1.75 L 2.609375 -5.109375 L 1.0625 -1.75 Z M 4.171875 -1.75 "/></g></g></g><g fill="#000000" fill-opacity="1"><g transform="translate(71.763973, 242.215561)"><g><path d="M 5.1875 -5.3125 L 5.1875 0 L 5.0625 0 L 1.15625 -5.03125 L 1.15625 0 L 1.015625 0 L 1.015625 -5.3125 L 1.140625 -5.3125 L 5.03125 -0.28125 L 5.03125 -5.3125 Z M 5.1875 -5.3125 "/></g></g></g><g fill="#000000" fill-opacity="1"><g transform="translate(79.828528, 242.215561)"><g><path d="M 2.3125 0.015625 C 1.925781 0.015625 1.5625 -0.0507812 1.21875 -0.1875 C 0.882812 -0.320312 0.625 -0.503906 0.4375 -0.734375 L 0.546875 -0.828125 C 0.722656 -0.628906 0.96875 -0.460938 1.28125 -0.328125 C 1.601562 -0.191406 1.941406 -0.125 2.296875 -0.125 C 2.847656 -0.125 3.265625 -0.234375 3.546875 -0.453125 C 3.828125 -0.671875 3.96875 -0.957031 3.96875 -1.3125 C 3.96875 -1.582031 3.894531 -1.796875 3.75 -1.953125 C 3.601562 -2.117188 3.421875 -2.238281 3.203125 -2.3125 C 2.992188 -2.394531 2.707031 -2.484375 2.34375 -2.578125 C 1.945312 -2.671875 1.632812 -2.757812 1.40625 -2.84375 C 1.1875 -2.9375 0.992188 -3.070312 0.828125 -3.25 C 0.671875 -3.4375 0.59375 -3.6875 0.59375 -4 C 0.59375 -4.238281 0.65625 -4.457031 0.78125 -4.65625 C 0.90625 -4.863281 1.101562 -5.03125 1.375 -5.15625 C 1.644531 -5.28125 1.976562 -5.34375 2.375 -5.34375 C 2.65625 -5.34375 2.929688 -5.296875 3.203125 -5.203125 C 3.472656 -5.117188 3.707031 -5.003906 3.90625 -4.859375 L 3.828125 -4.734375 C 3.617188 -4.878906 3.382812 -4.988281 3.125 -5.0625 C 2.875 -5.144531 2.625 -5.1875 2.375 -5.1875 C 1.84375 -5.1875 1.4375 -5.070312 1.15625 -4.84375 C 0.882812 -4.625 0.75 -4.34375 0.75 -4 C 0.75 -3.71875 0.820312 -3.492188 0.96875 -3.328125 C 1.113281 -3.171875 1.296875 -3.050781 1.515625 -2.96875 C 1.734375 -2.882812 2.023438 -2.796875 2.390625 -2.703125 C 2.773438 -2.609375 3.082031 -2.515625 3.3125 -2.421875 C 3.539062 -2.335938 3.734375 -2.207031 3.890625 -2.03125 C 4.046875 -1.851562 4.125 -1.613281 4.125 -1.3125 C 4.125 -1.0625 4.054688 -0.832031 3.921875 -0.625 C 3.796875 -0.425781 3.597656 -0.269531 3.328125 -0.15625 C 3.054688 -0.0390625 2.71875 0.015625 2.3125 0.015625 Z M 2.3125 0.015625 "/></g></g></g><g fill="#000000" fill-opacity="1"><g transform="translate(86.261962, 242.215561)"><g><path d="M 1.15625 -5.171875 L 1.15625 -2.625 L 4.09375 -2.625 L 4.09375 -2.46875 L 1.15625 -2.46875 L 1.15625 0 L 1.015625 0 L 1.015625 -5.3125 L 4.4375 -5.3125 L 4.4375 -5.171875 Z M 1.15625 -5.171875 "/></g></g></g><g fill="#000000" fill-opacity="1"><g transform="translate(92.907817, 242.215561)"><g><path d="M 3.171875 0.015625 C 2.660156 0.015625 2.195312 -0.0976562 1.78125 -0.328125 C 1.363281 -0.554688 1.035156 -0.875 0.796875 -1.28125 C 0.566406 -1.6875 0.453125 -2.144531 0.453125 -2.65625 C 0.453125 -3.164062 0.566406 -3.625 0.796875 -4.03125 C 1.035156 -4.4375 1.363281 -4.753906 1.78125 -4.984375 C 2.195312 -5.222656 2.660156 -5.34375 3.171875 -5.34375 C 3.679688 -5.34375 4.144531 -5.222656 4.5625 -4.984375 C 4.976562 -4.753906 5.304688 -4.4375 5.546875 -4.03125 C 5.785156 -3.625 5.90625 -3.164062 5.90625 -2.65625 C 5.90625 -2.144531 5.785156 -1.6875 5.546875 -1.28125 C 5.304688 -0.875 4.976562 -0.554688 4.5625 -0.328125 C 4.144531 -0.0976562 3.679688 0.015625 3.171875 0.015625 Z M 3.171875 -0.125 C 3.648438 -0.125 4.085938 -0.234375 4.484375 -0.453125 C 4.878906 -0.671875 5.1875 -0.972656 5.40625 -1.359375 C 5.632812 -1.742188 5.75 -2.175781 5.75 -2.65625 C 5.75 -3.132812 5.632812 -3.566406 5.40625 -3.953125 C 5.1875 -4.335938 4.878906 -4.640625 4.484375 -4.859375 C 4.085938 -5.078125 3.648438 -5.1875 3.171875 -5.1875 C 2.691406 -5.1875 2.253906 -5.078125 1.859375 -4.859375 C 1.472656 -4.640625 1.164062 -4.335938 0.9375 -3.953125 C 0.707031 -3.566406 0.59375 -3.132812 0.59375 -2.65625 C 0.59375 -2.175781 0.707031 -1.742188 0.9375 -1.359375 C 1.164062 -0.972656 1.472656 -0.671875 1.859375 -0.453125 C 2.253906 -0.234375 2.691406 -0.125 3.171875 -0.125 Z M 3.171875 -0.125 "/></g></g></g><g fill="#000000" fill-opacity="1"><g transform="translate(101.124104, 242.215561)"><g><path d="M 4.78125 0 L 3.4375 -1.875 C 3.257812 -1.84375 3.050781 -1.828125 2.8125 -1.828125 L 1.15625 -1.828125 L 1.15625 0 L 1.015625 0 L 1.015625 -5.3125 L 2.8125 -5.3125 C 3.46875 -5.3125 3.976562 -5.15625 4.34375 -4.84375 C 4.707031 -4.539062 4.890625 -4.113281 4.890625 -3.5625 C 4.890625 -3.144531 4.773438 -2.789062 4.546875 -2.5 C 4.328125 -2.21875 4.007812 -2.019531 3.59375 -1.90625 L 4.96875 0 Z M 2.828125 -1.96875 C 3.441406 -1.96875 3.914062 -2.101562 4.25 -2.375 C 4.582031 -2.65625 4.75 -3.050781 4.75 -3.5625 C 4.75 -4.082031 4.582031 -4.476562 4.25 -4.75 C 3.914062 -5.03125 3.441406 -5.171875 2.828125 -5.171875 L 1.15625 -5.171875 L 1.15625 -1.96875 Z M 2.828125 -1.96875 "/></g></g></g><g fill="#000000" fill-opacity="1"><g transform="translate(108.429994, 242.215561)"><g><path d="M 6.25 -5.3125 L 6.25 0 L 6.09375 0 L 6.09375 -4.984375 L 3.671875 -0.75 L 3.578125 -0.75 L 1.15625 -4.96875 L 1.15625 0 L 1.015625 0 L 1.015625 -5.3125 L 1.140625 -5.3125 L 3.625 -0.953125 L 6.125 -5.3125 Z M 6.25 -5.3125 "/></g></g></g><g fill="#000000" fill-opacity="1"><g transform="translate(117.55667, 242.215561)"><g><path d="M 4.234375 -1.609375 L 0.984375 -1.609375 L 0.25 0 L 0.0625 0 L 2.53125 -5.3125 L 2.6875 -5.3125 L 5.15625 0 L 4.984375 0 Z M 4.171875 -1.75 L 2.609375 -5.109375 L 1.0625 -1.75 Z M 4.171875 -1.75 "/></g></g></g><g fill="#000000" fill-opacity="1"><g transform="translate(124.650136, 242.215561)"><g><path d="M 5.1875 -5.3125 L 5.1875 0 L 5.0625 0 L 1.15625 -5.03125 L 1.15625 0 L 1.015625 0 L 1.015625 -5.3125 L 1.140625 -5.3125 L 5.03125 -0.28125 L 5.03125 -5.3125 Z M 5.1875 -5.3125 "/></g></g></g><g fill="#000000" fill-opacity="1"><g transform="translate(132.714694, 242.215561)"><g><path d="M 1.015625 -5.3125 L 3.015625 -5.3125 C 3.566406 -5.3125 4.054688 -5.195312 4.484375 -4.96875 C 4.910156 -4.738281 5.238281 -4.421875 5.46875 -4.015625 C 5.707031 -3.617188 5.828125 -3.164062 5.828125 -2.65625 C 5.828125 -2.144531 5.707031 -1.6875 5.46875 -1.28125 C 5.238281 -0.882812 4.910156 -0.570312 4.484375 -0.34375 C 4.054688 -0.113281 3.566406 0 3.015625 0 L 1.015625 0 Z M 3 -0.140625 C 3.53125 -0.140625 4 -0.25 4.40625 -0.46875 C 4.8125 -0.6875 5.125 -0.984375 5.34375 -1.359375 C 5.5625 -1.742188 5.671875 -2.175781 5.671875 -2.65625 C 5.671875 -3.132812 5.5625 -3.566406 5.34375 -3.953125 C 5.125 -4.335938 4.8125 -4.632812 4.40625 -4.84375 C 4 -5.0625 3.53125 -5.171875 3 -5.171875 L 1.15625 -5.171875 L 1.15625 -0.140625 Z M 3 -0.140625 "/></g></g></g><g fill="#000000" fill-opacity="1"><g transform="translate(140.855114, 242.215561)"><g><path d="M 3.171875 0.015625 C 2.660156 0.015625 2.195312 -0.0976562 1.78125 -0.328125 C 1.363281 -0.554688 1.035156 -0.875 0.796875 -1.28125 C 0.566406 -1.6875 0.453125 -2.144531 0.453125 -2.65625 C 0.453125 -3.164062 0.566406 -3.625 0.796875 -4.03125 C 1.035156 -4.4375 1.363281 -4.753906 1.78125 -4.984375 C 2.195312 -5.222656 2.660156 -5.34375 3.171875 -5.34375 C 3.679688 -5.34375 4.144531 -5.222656 4.5625 -4.984375 C 4.976562 -4.753906 5.304688 -4.4375 5.546875 -4.03125 C 5.785156 -3.625 5.90625 -3.164062 5.90625 -2.65625 C 5.90625 -2.144531 5.785156 -1.6875 5.546875 -1.28125 C 5.304688 -0.875 4.976562 -0.554688 4.5625 -0.328125 C 4.144531 -0.0976562 3.679688 0.015625 3.171875 0.015625 Z M 3.171875 -0.125 C 3.648438 -0.125 4.085938 -0.234375 4.484375 -0.453125 C 4.878906 -0.671875 5.1875 -0.972656 5.40625 -1.359375 C 5.632812 -1.742188 5.75 -2.175781 5.75 -2.65625 C 5.75 -3.132812 5.632812 -3.566406 5.40625 -3.953125 C 5.1875 -4.335938 4.878906 -4.640625 4.484375 -4.859375 C 4.085938 -5.078125 3.648438 -5.1875 3.171875 -5.1875 C 2.691406 -5.1875 2.253906 -5.078125 1.859375 -4.859375 C 1.472656 -4.640625 1.164062 -4.335938 0.9375 -3.953125 C 0.707031 -3.566406 0.59375 -3.132812 0.59375 -2.65625 C 0.59375 -2.175781 0.707031 -1.742188 0.9375 -1.359375 C 1.164062 -0.972656 1.472656 -0.671875 1.859375 -0.453125 C 2.253906 -0.234375 2.691406 -0.125 3.171875 -0.125 Z M 3.171875 -0.125 "/></g></g></g><g fill="#000000" fill-opacity="1"><g transform="translate(149.071406, 242.215561)"><g/></g></g><g fill="#000000" fill-opacity="1"><g transform="translate(152.841938, 242.215561)"><g><path d="M 1.015625 -5.3125 L 1.15625 -5.3125 L 1.15625 0 L 1.015625 0 Z M 1.015625 -5.3125 "/></g></g></g><g fill="#000000" fill-opacity="1"><g transform="translate(156.88559, 242.215561)"><g><path d="M 1.015625 -5.3125 L 3.015625 -5.3125 C 3.566406 -5.3125 4.054688 -5.195312 4.484375 -4.96875 C 4.910156 -4.738281 5.238281 -4.421875 5.46875 -4.015625 C 5.707031 -3.617188 5.828125 -3.164062 5.828125 -2.65625 C 5.828125 -2.144531 5.707031 -1.6875 5.46875 -1.28125 C 5.238281 -0.882812 4.910156 -0.570312 4.484375 -0.34375 C 4.054688 -0.113281 3.566406 0 3.015625 0 L 1.015625 0 Z M 3 -0.140625 C 3.53125 -0.140625 4 -0.25 4.40625 -0.46875 C 4.8125 -0.6875 5.125 -0.984375 5.34375 -1.359375 C 5.5625 -1.742188 5.671875 -2.175781 5.671875 -2.65625 C 5.671875 -3.132812 5.5625 -3.566406 5.34375 -3.953125 C 5.125 -4.335938 4.8125 -4.632812 4.40625 -4.84375 C 4 -5.0625 3.53125 -5.171875 3 -5.171875 L 1.15625 -5.171875 L 1.15625 -0.140625 Z M 3 -0.140625 "/></g></g></g><g fill="#000000" fill-opacity="1"><g transform="translate(165.026011, 242.215561)"><g><path d="M 4.546875 -0.140625 L 4.546875 0 L 1.015625 0 L 1.015625 -5.3125 L 4.4375 -5.3125 L 4.4375 -5.171875 L 1.15625 -5.171875 L 1.15625 -2.765625 L 4.09375 -2.765625 L 4.09375 -2.625 L 1.15625 -2.625 L 1.15625 -0.140625 Z M 4.546875 -0.140625 "/></g></g></g><g fill="#000000" fill-opacity="1"><g transform="translate(171.967747, 242.215561)"><g><path d="M 1.015625 -5.3125 L 1.15625 -5.3125 L 1.15625 0 L 1.015625 0 Z M 1.015625 -5.3125 "/></g></g></g><g fill="#000000" fill-opacity="1"><g transform="translate(176.0114, 242.215561)"><g><path d="M 4.234375 -1.609375 L 0.984375 -1.609375 L 0.25 0 L 0.0625 0 L 2.53125 -5.3125 L 2.6875 -5.3125 L 5.15625 0 L 4.984375 0 Z M 4.171875 -1.75 L 2.609375 -5.109375 L 1.0625 -1.75 Z M 4.171875 -1.75 "/></g></g></g><g fill="#000000" fill-opacity="1"><g transform="translate(183.104871, 242.215561)"><g><path d="M 2.3125 0.015625 C 1.925781 0.015625 1.5625 -0.0507812 1.21875 -0.1875 C 0.882812 -0.320312 0.625 -0.503906 0.4375 -0.734375 L 0.546875 -0.828125 C 0.722656 -0.628906 0.96875 -0.460938 1.28125 -0.328125 C 1.601562 -0.191406 1.941406 -0.125 2.296875 -0.125 C 2.847656 -0.125 3.265625 -0.234375 3.546875 -0.453125 C 3.828125 -0.671875 3.96875 -0.957031 3.96875 -1.3125 C 3.96875 -1.582031 3.894531 -1.796875 3.75 -1.953125 C 3.601562 -2.117188 3.421875 -2.238281 3.203125 -2.3125 C 2.992188 -2.394531 2.707031 -2.484375 2.34375 -2.578125 C 1.945312 -2.671875 1.632812 -2.757812 1.40625 -2.84375 C 1.1875 -2.9375 0.992188 -3.070312 0.828125 -3.25 C 0.671875 -3.4375 0.59375 -3.6875 0.59375 -4 C 0.59375 -4.238281 0.65625 -4.457031 0.78125 -4.65625 C 0.90625 -4.863281 1.101562 -5.03125 1.375 -5.15625 C 1.644531 -5.28125 1.976562 -5.34375 2.375 -5.34375 C 2.65625 -5.34375 2.929688 -5.296875 3.203125 -5.203125 C 3.472656 -5.117188 3.707031 -5.003906 3.90625 -4.859375 L 3.828125 -4.734375 C 3.617188 -4.878906 3.382812 -4.988281 3.125 -5.0625 C 2.875 -5.144531 2.625 -5.1875 2.375 -5.1875 C 1.84375 -5.1875 1.4375 -5.070312 1.15625 -4.84375 C 0.882812 -4.625 0.75 -4.34375 0.75 -4 C 0.75 -3.71875 0.820312 -3.492188 0.96875 -3.328125 C 1.113281 -3.171875 1.296875 -3.050781 1.515625 -2.96875 C 1.734375 -2.882812 2.023438 -2.796875 2.390625 -2.703125 C 2.773438 -2.609375 3.082031 -2.515625 3.3125 -2.421875 C 3.539062 -2.335938 3.734375 -2.207031 3.890625 -2.03125 C 4.046875 -1.851562 4.125 -1.613281 4.125 -1.3125 C 4.125 -1.0625 4.054688 -0.832031 3.921875 -0.625 C 3.796875 -0.425781 3.597656 -0.269531 3.328125 -0.15625 C 3.054688 -0.0390625 2.71875 0.015625 2.3125 0.015625 Z M 2.3125 0.015625 "/></g></g></g><g fill="#000000" fill-opacity="1"><g transform="translate(189.538308, 242.215561)"><g/></g></g><g fill="#000000" fill-opacity="1"><g transform="translate(193.30884, 242.215561)"><g><path d="M 4.546875 -0.140625 L 4.546875 0 L 1.015625 0 L 1.015625 -5.3125 L 4.4375 -5.3125 L 4.4375 -5.171875 L 1.15625 -5.171875 L 1.15625 -2.765625 L 4.09375 -2.765625 L 4.09375 -2.625 L 1.15625 -2.625 L 1.15625 -0.140625 Z M 4.546875 -0.140625 "/></g></g></g><g fill="#000000" fill-opacity="1"><g transform="translate(200.250577, 242.215561)"><g><path d="M 6.25 -5.3125 L 6.25 0 L 6.09375 0 L 6.09375 -4.984375 L 3.671875 -0.75 L 3.578125 -0.75 L 1.15625 -4.96875 L 1.15625 0 L 1.015625 0 L 1.015625 -5.3125 L 1.140625 -5.3125 L 3.625 -0.953125 L 6.125 -5.3125 Z M 6.25 -5.3125 "/></g></g></g><g fill="#000000" fill-opacity="1"><g transform="translate(209.377257, 242.215561)"><g/></g></g><g fill="#000000" fill-opacity="1"><g transform="translate(213.147789, 242.215561)"><g><path d="M 4.78125 0 L 3.4375 -1.875 C 3.257812 -1.84375 3.050781 -1.828125 2.8125 -1.828125 L 1.15625 -1.828125 L 1.15625 0 L 1.015625 0 L 1.015625 -5.3125 L 2.8125 -5.3125 C 3.46875 -5.3125 3.976562 -5.15625 4.34375 -4.84375 C 4.707031 -4.539062 4.890625 -4.113281 4.890625 -3.5625 C 4.890625 -3.144531 4.773438 -2.789062 4.546875 -2.5 C 4.328125 -2.21875 4.007812 -2.019531 3.59375 -1.90625 L 4.96875 0 Z M 2.828125 -1.96875 C 3.441406 -1.96875 3.914062 -2.101562 4.25 -2.375 C 4.582031 -2.65625 4.75 -3.050781 4.75 -3.5625 C 4.75 -4.082031 4.582031 -4.476562 4.25 -4.75 C 3.914062 -5.03125 3.441406 -5.171875 2.828125 -5.171875 L 1.15625 -5.171875 L 1.15625 -1.96875 Z M 2.828125 -1.96875 "/></g></g></g><g fill="#000000" fill-opacity="1"><g transform="translate(220.453674, 242.215561)"><g><path d="M 4.546875 -0.140625 L 4.546875 0 L 1.015625 0 L 1.015625 -5.3125 L 4.4375 -5.3125 L 4.4375 -5.171875 L 1.15625 -5.171875 L 1.15625 -2.765625 L 4.09375 -2.765625 L 4.09375 -2.625 L 1.15625 -2.625 L 1.15625 -0.140625 Z M 4.546875 -0.140625 "/></g></g></g><g fill="#000000" fill-opacity="1"><g transform="translate(227.395401, 242.215561)"><g><path d="M 4.234375 -1.609375 L 0.984375 -1.609375 L 0.25 0 L 0.0625 0 L 2.53125 -5.3125 L 2.6875 -5.3125 L 5.15625 0 L 4.984375 0 Z M 4.171875 -1.75 L 2.609375 -5.109375 L 1.0625 -1.75 Z M 4.171875 -1.75 "/></g></g></g><g fill="#000000" fill-opacity="1"><g transform="translate(234.488872, 242.215561)"><g><path d="M 1.015625 -5.3125 L 1.15625 -5.3125 L 1.15625 -0.140625 L 4.328125 -0.140625 L 4.328125 0 L 1.015625 0 Z M 1.015625 -5.3125 "/></g></g></g><g fill="#000000" fill-opacity="1"><g transform="translate(240.762982, 242.215561)"><g><path d="M 1.015625 -5.3125 L 1.15625 -5.3125 L 1.15625 0 L 1.015625 0 Z M 1.015625 -5.3125 "/></g></g></g><g fill="#000000" fill-opacity="1"><g transform="translate(244.806635, 242.215561)"><g><path d="M 1.015625 -5.3125 L 3.015625 -5.3125 C 3.566406 -5.3125 4.054688 -5.195312 4.484375 -4.96875 C 4.910156 -4.738281 5.238281 -4.421875 5.46875 -4.015625 C 5.707031 -3.617188 5.828125 -3.164062 5.828125 -2.65625 C 5.828125 -2.144531 5.707031 -1.6875 5.46875 -1.28125 C 5.238281 -0.882812 4.910156 -0.570312 4.484375 -0.34375 C 4.054688 -0.113281 3.566406 0 3.015625 0 L 1.015625 0 Z M 3 -0.140625 C 3.53125 -0.140625 4 -0.25 4.40625 -0.46875 C 4.8125 -0.6875 5.125 -0.984375 5.34375 -1.359375 C 5.5625 -1.742188 5.671875 -2.175781 5.671875 -2.65625 C 5.671875 -3.132812 5.5625 -3.566406 5.34375 -3.953125 C 5.125 -4.335938 4.8125 -4.632812 4.40625 -4.84375 C 4 -5.0625 3.53125 -5.171875 3 -5.171875 L 1.15625 -5.171875 L 1.15625 -0.140625 Z M 3 -0.140625 "/></g></g></g><g fill="#000000" fill-opacity="1"><g transform="translate(252.947055, 242.215561)"><g><path d="M 4.234375 -1.609375 L 0.984375 -1.609375 L 0.25 0 L 0.0625 0 L 2.53125 -5.3125 L 2.6875 -5.3125 L 5.15625 0 L 4.984375 0 Z M 4.171875 -1.75 L 2.609375 -5.109375 L 1.0625 -1.75 Z M 4.171875 -1.75 "/></g></g></g><g fill="#000000" fill-opacity="1"><g transform="translate(260.040526, 242.215561)"><g><path d="M 1.015625 -5.3125 L 3.015625 -5.3125 C 3.566406 -5.3125 4.054688 -5.195312 4.484375 -4.96875 C 4.910156 -4.738281 5.238281 -4.421875 5.46875 -4.015625 C 5.707031 -3.617188 5.828125 -3.164062 5.828125 -2.65625 C 5.828125 -2.144531 5.707031 -1.6875 5.46875 -1.28125 C 5.238281 -0.882812 4.910156 -0.570312 4.484375 -0.34375 C 4.054688 -0.113281 3.566406 0 3.015625 0 L 1.015625 0 Z M 3 -0.140625 C 3.53125 -0.140625 4 -0.25 4.40625 -0.46875 C 4.8125 -0.6875 5.125 -0.984375 5.34375 -1.359375 C 5.5625 -1.742188 5.671875 -2.175781 5.671875 -2.65625 C 5.671875 -3.132812 5.5625 -3.566406 5.34375 -3.953125 C 5.125 -4.335938 4.8125 -4.632812 4.40625 -4.84375 C 4 -5.0625 3.53125 -5.171875 3 -5.171875 L 1.15625 -5.171875 L 1.15625 -0.140625 Z M 3 -0.140625 "/></g></g></g><g fill="#000000" fill-opacity="1"><g transform="translate(268.180946, 242.215561)"><g><path d="M 4.546875 -0.140625 L 4.546875 0 L 1.015625 0 L 1.015625 -5.3125 L 4.4375 -5.3125 L 4.4375 -5.171875 L 1.15625 -5.171875 L 1.15625 -2.765625 L 4.09375 -2.765625 L 4.09375 -2.625 L 1.15625 -2.625 L 1.15625 -0.140625 Z M 4.546875 -0.140625 "/></g></g></g><g fill="#000000" fill-opacity="1"><g transform="translate(275.122673, 242.215561)"><g/></g></g><g fill="#000000" fill-opacity="1"><g transform="translate(278.893205, 242.215561)"><g><path d="M 1.015625 -5.3125 L 3.015625 -5.3125 C 3.566406 -5.3125 4.054688 -5.195312 4.484375 -4.96875 C 4.910156 -4.738281 5.238281 -4.421875 5.46875 -4.015625 C 5.707031 -3.617188 5.828125 -3.164062 5.828125 -2.65625 C 5.828125 -2.144531 5.707031 -1.6875 5.46875 -1.28125 C 5.238281 -0.882812 4.910156 -0.570312 4.484375 -0.34375 C 4.054688 -0.113281 3.566406 0 3.015625 0 L 1.015625 0 Z M 3 -0.140625 C 3.53125 -0.140625 4 -0.25 4.40625 -0.46875 C 4.8125 -0.6875 5.125 -0.984375 5.34375 -1.359375 C 5.5625 -1.742188 5.671875 -2.175781 5.671875 -2.65625 C 5.671875 -3.132812 5.5625 -3.566406 5.34375 -3.953125 C 5.125 -4.335938 4.8125 -4.632812 4.40625 -4.84375 C 4 -5.0625 3.53125 -5.171875 3 -5.171875 L 1.15625 -5.171875 L 1.15625 -0.140625 Z M 3 -0.140625 "/></g></g></g><g fill="#000000" fill-opacity="1"><g transform="translate(287.033625, 242.215561)"><g><path d="M 1.015625 -5.3125 L 1.15625 -5.3125 L 1.15625 0 L 1.015625 0 Z M 1.015625 -5.3125 "/></g></g></g><g fill="#000000" fill-opacity="1"><g transform="translate(291.077278, 242.215561)"><g><path d="M 4.875 -2.609375 L 5.03125 -2.609375 L 5.03125 -0.65625 C 4.800781 -0.4375 4.53125 -0.269531 4.21875 -0.15625 C 3.90625 -0.0390625 3.566406 0.015625 3.203125 0.015625 C 2.679688 0.015625 2.207031 -0.0976562 1.78125 -0.328125 C 1.363281 -0.554688 1.035156 -0.875 0.796875 -1.28125 C 0.566406 -1.6875 0.453125 -2.144531 0.453125 -2.65625 C 0.453125 -3.164062 0.566406 -3.625 0.796875 -4.03125 C 1.035156 -4.4375 1.363281 -4.753906 1.78125 -4.984375 C 2.207031 -5.222656 2.679688 -5.34375 3.203125 -5.34375 C 3.566406 -5.34375 3.90625 -5.285156 4.21875 -5.171875 C 4.53125 -5.054688 4.800781 -4.882812 5.03125 -4.65625 L 4.9375 -4.5625 C 4.488281 -4.976562 3.910156 -5.1875 3.203125 -5.1875 C 2.710938 -5.1875 2.269531 -5.078125 1.875 -4.859375 C 1.476562 -4.640625 1.164062 -4.332031 0.9375 -3.9375 C 0.707031 -3.550781 0.59375 -3.125 0.59375 -2.65625 C 0.59375 -2.1875 0.707031 -1.757812 0.9375 -1.375 C 1.164062 -0.988281 1.476562 -0.679688 1.875 -0.453125 C 2.269531 -0.234375 2.710938 -0.125 3.203125 -0.125 C 3.898438 -0.125 4.457031 -0.320312 4.875 -0.71875 Z M 4.875 -2.609375 "/></g></g></g><g fill="#000000" fill-opacity="1"><g transform="translate(298.823201, 242.215561)"><g><path d="M 1.015625 -5.3125 L 1.15625 -5.3125 L 1.15625 0 L 1.015625 0 Z M 1.015625 -5.3125 "/></g></g></g><g fill="#000000" fill-opacity="1"><g transform="translate(302.866854, 242.215561)"><g><path d="M 2 -5.171875 L 0.03125 -5.171875 L 0.03125 -5.3125 L 4.125 -5.3125 L 4.125 -5.171875 L 2.15625 -5.171875 L 2.15625 0 L 2 0 Z M 2 -5.171875 "/></g></g></g><g fill="#000000" fill-opacity="1"><g transform="translate(308.898192, 242.215561)"><g><path d="M 4.234375 -1.609375 L 0.984375 -1.609375 L 0.25 0 L 0.0625 0 L 2.53125 -5.3125 L 2.6875 -5.3125 L 5.15625 0 L 4.984375 0 Z M 4.171875 -1.75 L 2.609375 -5.109375 L 1.0625 -1.75 Z M 4.171875 -1.75 "/></g></g></g><g fill="#000000" fill-opacity="1"><g transform="translate(315.991664, 242.215561)"><g><path d="M 1.015625 -5.3125 L 1.15625 -5.3125 L 1.15625 -0.140625 L 4.328125 -0.140625 L 4.328125 0 L 1.015625 0 Z M 1.015625 -5.3125 "/></g></g></g><g fill="#000000" fill-opacity="1"><g transform="translate(322.265774, 242.215561)"><g><path d="M 0.6875 0.015625 C 0.632812 0.015625 0.585938 0 0.546875 -0.03125 C 0.515625 -0.0703125 0.5 -0.117188 0.5 -0.171875 C 0.5 -0.234375 0.515625 -0.28125 0.546875 -0.3125 C 0.585938 -0.351562 0.632812 -0.375 0.6875 -0.375 C 0.75 -0.375 0.796875 -0.351562 0.828125 -0.3125 C 0.867188 -0.28125 0.890625 -0.234375 0.890625 -0.171875 C 0.890625 -0.117188 0.867188 -0.0703125 0.828125 -0.03125 C 0.796875 0 0.75 0.015625 0.6875 0.015625 Z M 0.6875 0.015625 "/></g></g></g></svg>